<?xml version="1.0" encoding="UTF-8"?> <!-- Generator: Adobe Illustrator 24.3.0, SVG Export Plug-In . SVG Version: 6.00 Build 0) --> <svg xmlns="http://www.w3.org/2000/svg" xmlns:xlink="http://www.w3.org/1999/xlink" version="1.1" id="Layer_1" x="0px" y="0px" viewBox="0 0 100 100" style="enable-background:new 0 0 100 100;" xml:space="preserve"> <path style="fill:#F52878;" d="M94.7,12.4H5.3c-1.1,0-2,0.9-2,2v66.1c0,1.1,0.9,2,2,2h26.9V97c0,0.8,0.5,1.5,1.2,1.8 c0.2,0.1,0.5,0.2,0.8,0.2c0.5,0,1-0.2,1.4-0.6l15.9-15.9h43.1c1.1,0,2-0.9,2-2V14.4C96.7,13.3,95.8,12.4,94.7,12.4z M92.7,78.5H50.8 c-0.5,0-1,0.2-1.4,0.6L36.2,92.1V80.5c0-1.1-0.9-2-2-2H7.3V16.4h85.3V78.5z M37.1,53.5l-2.3,13.6c-0.1,0.8,0.2,1.5,0.8,2 c0.6,0.4,1.4,0.5,2.1,0.2L50,62.8l12.3,6.4c0.3,0.2,0.6,0.2,0.9,0.2c0.4,0,0.8-0.1,1.2-0.4c0.6-0.4,0.9-1.2,0.8-2l-2.3-13.6l10-9.7 c0.5-0.5,0.7-1.3,0.5-2.1c-0.2-0.7-0.9-1.3-1.6-1.4l-13.8-2L51.8,26c-0.3-0.7-1-1.1-1.8-1.1c-0.8,0-1.5,0.4-1.8,1.1l-6.2,12.4 l-13.8,2c-0.8,0.1-1.4,0.6-1.6,1.4c-0.2,0.7,0,1.5,0.5,2.1L37.1,53.5z M43.7,42.2c0.7-0.1,1.2-0.5,1.5-1.1l4.8-9.7l4.8,9.7 c0.3,0.6,0.9,1,1.5,1.1l10.8,1.6l-7.8,7.6c-0.5,0.5-0.7,1.1-0.6,1.8l1.8,10.7l-9.7-5c-0.3-0.2-0.6-0.2-0.9-0.2s-0.6,0.1-0.9,0.2 l-9.7,5l1.8-10.7c0.1-0.7-0.1-1.3-0.6-1.8l-7.8-7.6L43.7,42.2z"></path> </svg> 