<?xml version="1.0" encoding="UTF-8"?> <!-- Generator: Adobe Illustrator 24.3.0, SVG Export Plug-In . SVG Version: 6.00 Build 0) --> <svg xmlns="http://www.w3.org/2000/svg" xmlns:xlink="http://www.w3.org/1999/xlink" version="1.1" id="Layer_1" x="0px" y="0px" viewBox="0 0 100 100" style="enable-background:new 0 0 100 100;" xml:space="preserve"> <path style="fill:#F52878;" d="M82.7,31.5c5,0,9.1-4.1,9.1-9.1s-4.1-9-9.1-9s-9,4.1-9,9S77.7,31.5,82.7,31.5z M82.7,17.4 c2.8,0,5.1,2.3,5.1,5s-2.3,5.1-5.1,5.1s-5-2.3-5-5.1S79.9,17.4,82.7,17.4z M50,28.5c7.6,0,13.8-6.2,13.8-13.8S57.6,1,50,1 S36.2,7.2,36.2,14.8S42.4,28.5,50,28.5z M50,5c5.4,0,9.8,4.4,9.8,9.8s-4.4,9.8-9.8,9.8s-9.8-4.4-9.8-9.8S44.6,5,50,5z M66.5,33.9 H33.5c-1.1,0-2,0.9-2,2v23.5c0,5.6,4.1,10.3,9.4,11.2V97c0,1.1,0.9,2,2,2H57c1.1,0,2-0.9,2-2V70.6c5.3-0.9,9.4-5.6,9.4-11.2V35.9 C68.5,34.8,67.6,33.9,66.5,33.9z M64.5,59.4c0,4.1-3.3,7.4-7.4,7.4c-1.1,0-2,0.9-2,2V95H45V68.8c0-1.1-0.9-2-2-2 c-4.1,0-7.4-3.3-7.4-7.4V37.9h28.9V59.4z M94.5,36.9H74c-1.1,0-2,0.9-2,2s0.9,2,2,2h18.5V53c0,5.1-1.6,5.1-2.7,5.1c-1.1,0-2,0.9-2,2 v19.2H77.7V60.1c0-1.1-0.9-2-2-2s-2,0.9-2,2v21.2c0,1.1,0.9,2,2,2h14.1c1.1,0,2-0.9,2-2V61.9c3.1-0.8,4.7-3.8,4.7-8.8V38.9 C96.5,37.8,95.6,36.9,94.5,36.9z M26,36.9H5.5c-1.1,0-2,0.9-2,2V53c0,5,1.6,8,4.7,8.8v19.4c0,1.1,0.9,2,2,2h14.1c1.1,0,2-0.9,2-2 V60.1c0-1.1-0.9-2-2-2s-2,0.9-2,2v19.2H12.2V60.1c0-1.1-0.9-2-2-2c-1.1,0-2.7,0-2.7-5V40.9H26c1.1,0,2-0.9,2-2S27.1,36.9,26,36.9z M17.3,31.5c5,0,9-4.1,9-9.1s-4.1-9-9-9s-9.1,4.1-9.1,9S12.3,31.5,17.3,31.5z M17.3,17.4c2.8,0,5,2.3,5,5s-2.3,5.1-5,5.1 s-5.1-2.3-5.1-5.1S14.5,17.4,17.3,17.4z"></path> </svg> 