<?xml version="1.0" encoding="UTF-8"?> <!-- Generator: Adobe Illustrator 24.3.0, SVG Export Plug-In . SVG Version: 6.00 Build 0) --> <svg xmlns="http://www.w3.org/2000/svg" xmlns:xlink="http://www.w3.org/1999/xlink" version="1.1" id="Layer_1" x="0px" y="0px" viewBox="0 0 100 100" style="enable-background:new 0 0 100 100;" xml:space="preserve"> <path style="fill:#F52878;" d="M52,6c-0.1,0-0.1,0-0.2,0c-0.6,0-1.2,0-1.8,0c-0.6,0-1.3,0-1.9,0c0,0,0,0,0,0C24.5,7,6.7,24.8,6,47.8 c0,0.1,0,0.2,0,0.3c0,0.1,0,0.1,0,0.2c0,0.3,0,0.5,0,0.8C6,73.2,24.7,93,48.1,94c0,0,0.1,0,0.1,0c0,0,0,0,0.1,0c0.5,0,1.1,0,1.6,0 c0.6,0,1.3,0,1.9,0c0,0,0,0,0,0c0,0,0,0,0.1,0C75.3,92.9,94,73.5,94,49.8C94,26.3,75.3,7.1,52,6z M83.5,28.2 c3.4,5.3,5.7,11.4,6.3,17.9H70.1C69.9,40,68.8,34,66.7,28.2H83.5z M80.6,24.2H65c-2.1-4.7-4.9-9.3-8.4-13.6 C66.2,12.1,74.6,17.1,80.6,24.2z M33.7,46.1c0.2-6.1,1.5-12.1,3.8-17.9h25c2.3,5.8,3.6,11.8,3.8,17.9H33.7z M66.3,50.1 C66.1,56,64.9,62,62.7,68H37.3c-2.1-6-3.3-12-3.6-17.9H66.3z M49.1,10c0.3,0,0.6,0,0.9,0c0.3,0,0.6,0,0.9,0 c4.1,4.5,7.3,9.2,9.8,14.2H39.3C41.8,19.3,45.1,14.5,49.1,10z M43.4,10.5c-3.5,4.4-6.3,8.9-8.5,13.7H18.9C24.8,17,33.4,12,43.4,10.5 z M16,28.2h17.4C31.2,34,30.1,40,29.9,46.1H10.1C10.6,39.5,12.7,33.4,16,28.2z M10,50.1h19.9C30.1,56,31.2,62,33.2,68H14.5 C11.8,62.6,10.2,56.5,10,50.1z M16.9,72h17.7c2.3,5.9,5.4,11.7,9.4,17.5C32.7,87.8,23,81.3,16.9,72z M50.8,90c-0.3,0-0.6,0-0.9,0 c-0.2,0-0.4,0-0.7,0c-4.4-6-7.9-12-10.4-18h22.4C58.7,78,55.2,84,50.8,90z M56,89.5c4-5.8,7.1-11.7,9.4-17.5h17.9 C77.2,81.2,67.4,87.8,56,89.5z M66.9,68c2-6,3.1-12,3.3-17.9H90c0,6.4-1.6,12.5-4.4,17.9H66.9z"></path> </svg> 