<?xml version="1.0" encoding="UTF-8"?> <!-- Generator: Adobe Illustrator 24.3.0, SVG Export Plug-In . SVG Version: 6.00 Build 0) --> <svg xmlns="http://www.w3.org/2000/svg" xmlns:xlink="http://www.w3.org/1999/xlink" version="1.1" id="Layer_1" x="0px" y="0px" viewBox="0 0 100 100" style="enable-background:new 0 0 100 100;" xml:space="preserve"> <path style="fill:#F52878;" d="M40.9,15.8c-1.7,0-3.2,1.4-3.2,3.1c0,1.7,1.4,3.2,3.2,3.2S44,20.7,44,19C44,17.2,42.6,15.8,40.9,15.8 z M59.1,15.8c-1.7,0-3.2,1.4-3.2,3.1c0,1.7,1.4,3.2,3.2,3.2s3.2-1.4,3.2-3.2C62.3,17.2,60.9,15.8,59.1,15.8z M50,21.6 c-1.7,0-3.2,1.4-3.2,3.2c0,1.7,1.4,3.2,3.2,3.2s3.2-1.4,3.2-3.2C53.2,23,51.7,21.6,50,21.6z M69.7,23.7c-1.7,0-3.2,1.4-3.2,3.1 c0,1.7,1.4,3.2,3.2,3.2c1.7,0,3.1-1.4,3.1-3.2C72.8,25.1,71.4,23.7,69.7,23.7z M30.3,23.7c-1.7,0-3.1,1.4-3.1,3.1 c0,1.7,1.4,3.2,3.1,3.2c1.7,0,3.2-1.4,3.2-3.2C33.5,25.1,32.1,23.7,30.3,23.7z M94,59.1c0-2.7-1.2-5.2-3.1-6.9 c2-1.3,3.1-3.3,3.1-5.9c0-4.3-4.7-6.3-7.3-7C85.9,20.2,70.4,6,50,6S14.1,20.2,13.3,39.3c-2.6,0.8-7.3,2.8-7.3,7 C6,49,7.1,51,9.1,52.3C7.2,54,6,56.4,6,59.1c0,3,1.4,5.6,3.6,7.3C7.4,68.1,6,70.8,6,73.7c0,4.4,3.1,8.2,7.3,9.1v1.9 c0,5.1,4.2,9.3,9.3,9.3h54.8c5.1,0,9.3-4.2,9.3-9.3v-1.9c4.2-0.9,7.3-4.6,7.3-9.1c0-3-1.4-5.6-3.6-7.3C92.6,64.7,94,62.1,94,59.1z M50,10c17.9,0,31.6,12.3,32.6,28.9H17.4C18.4,22.3,32.1,10,50,10z M15.3,79c-2.9,0-5.3-2.4-5.3-5.3s2.4-5.3,5.3-5.3h34.2L70.7,79 H15.3z M58.5,68.4H78L71.5,75L58.5,68.4z M82.7,84.7c0,2.9-2.4,5.3-5.3,5.3H22.6c-2.9,0-5.3-2.4-5.3-5.3V83h65.4V84.7z M84.7,79H73 c0.1-0.1,0.2-0.1,0.3-0.2l10.4-10.4h1c2.9,0,5.3,2.4,5.3,5.3S87.6,79,84.7,79z M84.7,64.4H15.3c-2.9,0-5.3-2.4-5.3-5.3 s2.4-5.3,5.3-5.3c1.8,0,3.5-0.4,4.9-1.1c2.4,3.1,5.7,4.7,9.7,4.7c4.1,0,7.2-1.3,9.3-3.8c2.8,2.8,7.1,3.8,10.8,3.8 c3.7,0,8.1-1.1,10.8-3.8c2.1,2.6,5.1,3.8,9.3,3.8c4,0,7.3-1.7,9.7-4.7c1.4,0.7,3.1,1.1,4.9,1.1c2.9,0,5.3,2.4,5.3,5.3 S87.6,64.4,84.7,64.4z M84.7,49.8c-1.6,0-3.3-0.5-4.1-1.3c-0.4-0.4-1.1-0.6-1.7-0.5c-0.6,0.1-1.1,0.5-1.4,1c-1.1,2-3.3,4.4-7.4,4.4 c-3.9,0-6-1.2-7.3-4.3c-0.3-0.7-1-1.2-1.8-1.2c0,0,0,0,0,0c-0.8,0-1.5,0.5-1.8,1.2c-1.4,3.2-5.6,4.3-9.1,4.3c-3.5,0-7.7-1.1-9.1-4.3 c-0.3-0.7-1-1.2-1.8-1.2h0c-0.8,0-1.5,0.5-1.8,1.2c-1.3,3-3.4,4.3-7.3,4.3c-4.1,0-6.3-2.4-7.4-4.4c-0.3-0.5-0.8-0.9-1.4-1 c-0.6-0.1-1.2,0.1-1.7,0.5c-0.8,0.8-2.5,1.3-4.1,1.3c-5.3,0-5.3-2.5-5.3-3.5c0-1.6,3.5-3,5.5-3.5h69c2,0.4,5.5,1.8,5.5,3.5 C90,47.3,90,49.8,84.7,49.8z"></path> </svg> 